<svg id="svg" xmlns="http://www.w3.org/2000/svg" xmlns:xlink="http://www.w3.org/1999/xlink" width="400" height="400" viewBox="0, 0, 400,400"><g id="svgg"><path id="path0" d="M164.286 50.000 C 164.286 83.333,166.667 92.857,175.000 92.857 C 183.333 92.857,185.714 83.333,185.714 50.000 C 185.714 16.667,183.333 7.143,175.000 7.143 C 166.667 7.143,164.286 16.667,164.286 50.000 M121.429 78.571 C 121.429 111.905,123.810 121.429,132.143 121.429 C 140.476 121.429,142.857 111.905,142.857 78.571 C 142.857 45.238,140.476 35.714,132.143 35.714 C 123.810 35.714,121.429 45.238,121.429 78.571 M208.572 76.786 C 210.178 107.580,213.395 117.857,221.429 117.857 C 229.462 117.857,232.679 107.580,234.285 76.786 C 236.248 39.145,235.174 35.714,221.429 35.714 C 207.683 35.714,206.609 39.145,208.572 76.786 M26.190 133.333 C 10.287 149.236,33.453 251.847,64.221 301.786 L 85.124 335.714 46.134 335.714 C 2.938 335.714,-8.255 355.279,20.205 381.036 C 41.949 400.714,315.710 398.576,335.714 378.571 C 363.603 350.683,354.950 335.714,310.938 335.714 C 265.960 335.714,261.184 319.137,303.856 311.132 C 386.614 295.607,431.769 150.000,353.825 150.000 C 344.705 150.000,335.393 145.179,333.131 139.286 C 328.818 128.047,37.134 122.390,26.190 133.333 M305.142 188.750 C 294.856 288.412,254.093 335.714,178.493 335.714 L 122.542 335.714 98.621 307.768 C 73.444 278.355,54.025 231.110,46.251 180.357 L 41.601 150.000 175.371 150.000 L 309.141 150.000 305.142 188.750 M370.229 191.750 C 373.623 215.722,358.637 247.473,334.240 268.002 C 303.634 293.755,299.715 290.078,314.972 249.923 C 322.452 230.238,328.571 206.667,328.571 197.542 C 328.571 165.909,365.836 160.727,370.229 191.750 M317.857 364.286 C 311.906 373.914,45.237 373.914,39.286 364.286 C 36.399 359.614,84.590 357.143,178.571 357.143 C 272.553 357.143,320.744 359.614,317.857 364.286 " stroke="none" fill="#000000" fill-rule="evenodd"></path></g></svg>