<?xml version="1.0" standalone="no"?>
<!DOCTYPE svg PUBLIC "-//W3C//DTD SVG 20010904//EN">
<svg version="1.0" xmlns="http://www.w3.org/2000/svg"
 width="64.000000pt" height="64.000000pt" viewBox="0 0 64.000000 64.000000"
 preserveAspectRatio="xMidYMid meet">

<g transform="translate(0.000000,64.000000) scale(0.100000,-0.100000)"
fill="#000000" stroke="none">
<path d="M26 509 c-23 -27 -26 -39 -26 -110 0 -44 5 -89 10 -100 8 -13 7 -19
0 -19 -7 0 -10 -19 -8 -52 l3 -53 38 -3 c35 -3 37 -5 37 -37 0 -35 13 -45 55
-45 43 0 55 10 55 46 l0 34 130 0 130 0 0 -34 c0 -36 12 -46 55 -46 42 0 55
10 55 45 0 32 2 34 38 37 l37 3 3 53 c2 33 -1 52 -8 52 -7 0 -8 6 0 19 5 11
10 56 10 100 0 71 -3 83 -26 110 -26 31 -27 31 -123 31 -141 0 -157 -19 -149
-176 l4 -84 -26 0 -26 0 4 84 c8 157 -8 176 -149 176 -96 0 -97 0 -123 -31z
m212 -15 c20 -14 22 -24 22 -99 0 -104 -11 -115 -110 -115 -99 0 -110 11 -110
115 0 104 11 115 110 115 43 0 73 -5 88 -16z m340 0 c20 -14 22 -24 22 -99 0
-104 -11 -115 -110 -115 -99 0 -110 11 -110 115 0 104 11 115 110 115 43 0 73
-5 88 -16z m22 -268 c0 -9 -12 -16 -32 -18 -29 -3 -34 -7 -38 -38 -7 -51 -38
-54 -42 -3 l-3 38 -165 0 -165 0 -3 -38 c-4 -51 -35 -48 -42 3 -4 31 -9 35
-37 38 -21 2 -33 9 -33 18 0 12 43 14 280 14 237 0 280 -2 280 -14z"/>
<path d="M102 447 c-31 -33 -29 -80 4 -106 44 -34 86 -26 110 21 39 75 -57
146 -114 85z m79 -33 c9 -11 10 -20 2 -32 -15 -24 -44 -27 -59 -7 -28 38 27
75 57 39z"/>
<path d="M447 442 c-20 -21 -37 -42 -37 -48 0 -5 18 -28 40 -49 l40 -39 40 39
c22 21 40 44 40 50 0 11 -71 85 -81 85 -3 0 -22 -17 -42 -38z m67 -35 c8 -13
7 -21 -6 -34 -16 -16 -19 -16 -38 2 -19 17 -19 19 -3 37 19 21 32 20 47 -5z"/>
</g>
</svg>
