<svg id="svg" xmlns="http://www.w3.org/2000/svg" xmlns:xlink="http://www.w3.org/1999/xlink" width="400" height="400" viewBox="0, 0, 400,400"><g id="svgg"><path id="path0" d="M220.834 55.963 C 113.927 94.556,64.158 109.661,50.509 107.658 C -33.500 95.328,-10.211 202.290,93.750 306.250 C 195.614 408.114,293.750 431.372,293.750 353.650 C 293.750 341.908,317.656 262.166,346.875 176.446 C 376.094 90.726,400.000 15.959,400.000 10.296 C 400.000 -6.618,380.240 -1.581,220.834 55.963 M366.272 48.438 C 359.770 67.309,354.660 72.287,340.036 73.991 C 305.110 78.059,292.419 116.796,318.331 140.245 C 335.734 155.995,326.560 178.878,303.950 176.115 C 284.087 173.688,281.083 189.876,299.562 199.765 C 311.278 206.036,311.083 207.832,292.734 262.544 L 273.844 318.867 235.845 298.613 C 161.828 259.163,52.022 125.000,93.750 125.000 C 97.188 125.000,100.000 129.279,100.000 134.509 C 100.000 147.323,126.728 158.740,145.623 153.998 C 160.886 150.167,177.493 122.169,173.776 106.536 C 171.440 96.715,258.250 65.376,261.423 74.895 C 265.012 85.661,281.249 81.911,281.263 70.313 C 281.273 62.434,293.946 54.729,326.576 42.763 C 351.490 33.626,372.431 25.891,373.110 25.575 C 373.790 25.259,370.712 35.547,366.272 48.438 M231.250 98.603 C 199.923 108.723,190.764 140.764,212.879 162.879 C 241.261 191.261,291.664 157.331,274.122 121.651 C 265.141 103.383,246.866 93.558,231.250 98.603 M346.520 107.813 C 340.675 126.828,338.483 128.483,330.161 120.161 C 324.819 114.819,325.038 110.610,331.030 103.390 C 342.813 89.192,351.483 91.667,346.520 107.813 M150.000 115.821 C 150.000 128.179,132.442 134.942,123.520 126.020 C 117.625 120.125,128.439 111.717,148.438 106.646 C 149.297 106.428,150.000 110.557,150.000 115.821 M255.078 132.903 C 257.565 145.819,239.523 154.523,230.000 145.000 C 220.477 135.477,229.181 117.435,242.097 119.922 C 248.083 121.075,253.925 126.917,255.078 132.903 M77.699 171.875 C 102.932 221.219,178.781 297.068,228.125 322.301 C 267.919 342.651,277.844 359.672,259.024 375.291 C 214.574 412.182,-12.182 185.426,24.709 140.976 C 40.328 122.156,57.349 132.081,77.699 171.875 M35.812 147.521 C 31.139 152.195,56.850 206.250,63.745 206.250 C 66.498 206.250,68.750 210.469,68.750 215.625 C 68.750 220.781,72.969 225.000,78.125 225.000 C 83.281 225.000,87.500 220.781,87.500 215.625 C 87.500 210.469,84.688 206.250,81.250 206.250 C 77.813 206.250,75.000 202.127,75.000 197.087 C 75.000 170.123,47.718 135.616,35.812 147.521 M160.611 160.222 C 149.301 171.532,157.395 181.250,178.125 181.250 C 193.403 181.250,200.000 178.423,200.000 171.875 C 200.000 166.719,196.011 162.500,191.136 162.500 C 186.261 162.500,178.380 161.006,173.622 159.181 C 168.865 157.355,163.010 157.824,160.611 160.222 M159.544 199.726 C 153.259 209.897,162.177 231.250,172.711 231.250 C 179.193 231.250,181.471 226.102,180.103 214.544 C 178.013 196.894,166.447 188.557,159.544 199.726 M210.344 205.180 C 187.387 230.546,203.707 268.750,237.500 268.750 C 260.106 268.750,275.000 254.064,275.000 231.772 C 275.000 198.330,232.399 180.809,210.344 205.180 M252.085 227.668 C 257.306 241.274,239.799 253.438,228.497 244.058 C 217.121 234.617,222.765 218.750,237.500 218.750 C 243.639 218.750,250.203 222.763,252.085 227.668 " stroke="none" fill="#000000" fill-rule="evenodd"></path></g></svg>