<?xml version="1.0" standalone="no"?>
<!DOCTYPE svg PUBLIC "-//W3C//DTD SVG 20010904//EN"
 "http://www.w3.org/TR/2001/REC-SVG-20010904/DTD/svg10.dtd">
<svg version="1.0" xmlns="http://www.w3.org/2000/svg"
 width="64.000000pt" height="64.000000pt" viewBox="0 0 64.000000 64.000000"
 preserveAspectRatio="xMidYMid meet">

<g transform="translate(0.000000,64.000000) scale(0.100000,-0.100000)"
fill="#000000" stroke="none">
<path d="M17 582 c-28 -31 -20 -54 44 -127 l60 -70 -38 -3 c-78 -5 -83 -8 -83
-56 0 -96 52 -181 136 -222 37 -18 54 -32 54 -45 0 -18 9 -19 130 -19 122 0
130 1 130 20 0 13 14 25 43 38 88 39 147 131 147 228 0 29 -5 44 -16 48 -9 3
-91 6 -182 6 l-167 0 -67 78 c-111 128 -125 142 -151 142 -13 0 -31 -8 -40
-18z m114 -94 c97 -110 96 -108 67 -108 -17 0 -41 20 -88 76 -36 42 -66 82
-68 90 -8 34 30 9 89 -58z m469 -183 c0 -71 -73 -165 -139 -180 -17 -4 -36
-15 -41 -26 -16 -29 -184 -29 -200 0 -5 11 -24 22 -41 26 -66 15 -139 109
-139 180 l0 35 280 0 280 0 0 -35z"/>
<path d="M116 292 c-9 -15 20 -34 46 -30 35 5 29 32 -9 36 -17 2 -34 -1 -37
-6z"/>
<path d="M232 283 c2 -13 12 -18 33 -18 43 0 40 29 -3 33 -28 3 -33 0 -30 -15z"/>
<path d="M342 283 c5 -25 61 -25 66 0 3 14 -4 17 -33 17 -29 0 -36 -3 -33 -17z"/>
<path d="M455 290 c-10 -16 4 -30 29 -30 25 0 51 22 39 33 -10 11 -61 8 -68
-3z"/>
<path d="M340 582 c0 -25 21 -50 45 -54 11 -2 21 -11 23 -21 3 -14 -4 -17 -32
-17 -40 0 -79 -31 -74 -57 5 -25 29 -28 35 -4 4 17 13 21 43 21 41 0 70 24 70
58 0 24 -25 52 -45 52 -8 0 -19 9 -25 20 -13 25 -40 26 -40 2z"/>
<path d="M530 576 c0 -26 15 -42 45 -48 11 -2 21 -11 23 -21 3 -14 -4 -17 -32
-17 -40 0 -79 -31 -74 -57 5 -25 29 -28 35 -4 4 16 13 21 37 21 41 0 76 25 76
54 0 24 -28 56 -48 56 -7 0 -17 9 -24 20 -17 27 -38 25 -38 -4z"/>
</g>
</svg>
